<svg xmlns="http://www.w3.org/2000/svg" width="36" height="36" fill="none" viewBox="0 0 36 36" class="inline-block">
  <g clip-path="url(#clip0_4937_28041)">
    <path fill="#00BC6D" d="M8.488 31.781q-2.173 0-3.228-1.054-1.04-1.039-1.04-3.212v-3.368q0-.44-.299-.74l-2.377-2.393Q0 19.488 0 18.008t1.543-3.022l2.378-2.393q.3-.299.3-.724V8.485q0-2.189 1.039-3.227 1.055-1.04 3.228-1.04h3.37q.44 0 .74-.298l2.394-2.377Q16.535.001 18 0q1.48-.015 3.008 1.543L23.4 3.919q.315.3.756.3h3.355q2.189-.001 3.228 1.054t1.04 3.211v3.385q0 .424.314.724l2.378 2.392Q36 16.528 36 18.008q.014 1.479-1.528 3.006l-2.378 2.393a.98.98 0 0 0-.315.74v3.369q0 2.187-1.055 3.226-1.038 1.04-3.212 1.04h-3.355q-.441 0-.756.298l-2.393 2.393Q19.48 35.999 18 36q-1.466.015-3.008-1.527l-2.394-2.393q-.3-.3-.74-.299z"></path>
    <path fill="#000" d="M14.091 27.375c2.352-2.944 3.301-5.892 3.714-8.937h.384c.413 3.045 1.362 5.993 3.714 8.937h.231l3.96-7.895c-4.612-2.609-6.478-6.199-7.795-10.855h-.604C16.378 13.28 14.512 16.87 9.9 19.48l3.96 7.895z"></path>
  </g>
  <defs>
    <clipPath id="clip0_4937_28041">
      <path fill="#fff" d="M0 0h36v36H0z"></path>
    </clipPath>
  </defs>
</svg>
